<?xml version="1.0" standalone="no"?>
<!DOCTYPE svg PUBLIC "-//W3C//DTD SVG 20010904//EN"
 "http://www.w3.org/TR/2001/REC-SVG-20010904/DTD/svg10.dtd">
<svg version="1.0" xmlns="http://www.w3.org/2000/svg"
 width="460.000000pt" height="460.000000pt" viewBox="0 0 460.000000 460.000000"
 preserveAspectRatio="xMidYMid meet">
<metadata>
Created by potrace 1.14, written by Peter Selinger 2001-2017
</metadata>
<g transform="translate(0.000000,460.000000) scale(0.100000,-0.100000)"
fill="#000000" stroke="none">
<path d="M2080 4592 c-36 -17 -79 -57 -85 -80 -3 -13 -13 -31 -20 -39 -8 -8
-15 -25 -15 -38 0 -25 -39 -75 -58 -75 -6 0 -18 -13 -26 -30 -9 -16 -23 -43
-31 -59 -8 -15 -19 -49 -24 -74 -7 -42 -64 -147 -83 -155 -5 -2 -17 -25 -29
-50 -11 -26 -24 -55 -30 -65 -18 -33 -1 -31 77 9 62 31 88 39 138 40 33 1 72
6 86 11 14 6 28 9 33 6 4 -2 7 0 7 4 0 13 55 43 79 43 12 0 21 4 21 8 0 9 101
9 115 0 14 -8 79 0 83 11 4 12 73 -5 83 -21 5 -8 9 -9 9 -2 0 15 34 24 51 13
7 -4 18 -4 24 0 18 14 99 32 148 32 30 0 71 -22 98 -52 9 -10 19 -16 23 -12 3
3 6 1 6 -6 0 -7 5 -9 10 -6 6 3 10 1 10 -4 0 -6 9 -11 20 -11 11 0 20 -5 20
-11 0 -7 11 -8 30 -4 34 7 120 -30 120 -52 0 -7 6 -13 14 -13 7 0 19 -7 26
-15 11 -13 15 -13 21 -3 7 10 9 9 9 -4 0 -13 8 -18 29 -18 17 0 33 -4 36 -10
8 -13 25 -13 25 0 0 22 -46 79 -77 95 -18 10 -42 36 -53 57 -33 63 -84 103
-166 129 -64 20 -75 28 -91 59 -19 37 -60 79 -79 80 -17 0 -47 81 -58 155 -2
12 -12 21 -25 23 -13 2 -26 14 -32 30 -12 34 -15 41 -37 77 l-19 30 -199 2
c-109 1 -206 -1 -214 -5z"/>
<path d="M1464 3047 c3 -10 6 -20 6 -23 0 -2 8 0 17 3 13 5 15 3 9 -13 -5 -13
-4 -16 3 -9 12 12 3 55 -10 55 -5 0 -9 -6 -9 -12 0 -9 -4 -8 -11 2 -9 12 -10
12 -5 -3z"/>
<path d="M1541 3020 c-2 -50 38 -84 53 -44 3 8 2 13 -3 9 -5 -3 -12 1 -14 7
-4 9 -6 8 -7 -2 0 -8 -7 -1 -15 15 -7 17 -14 23 -14 15z"/>
<path d="M1820 2991 c0 -6 4 -13 10 -16 6 -3 7 1 4 9 -7 18 -14 21 -14 7z"/>
<path d="M1500 2967 c0 -10 -4 -16 -9 -13 -5 4 -7 -2 -4 -12 2 -11 13 -18 25
-18 12 1 23 -5 26 -13 3 -10 0 -12 -12 -8 -9 4 -16 2 -16 -4 0 -13 -24 10 -33
31 -4 8 -5 0 -4 -19 2 -27 -2 -35 -17 -37 -10 -1 -22 -6 -26 -11 -13 -14 -21
-93 -10 -93 5 0 10 10 10 23 0 16 3 18 9 8 7 -11 9 -11 13 0 7 21 38 2 37 -23
-1 -22 -1 -22 -9 2 -7 23 -8 24 -9 3 -1 -12 10 -35 24 -50 28 -32 31 -25 11
32 -15 42 -8 71 20 88 8 4 14 15 14 22 0 8 10 25 22 37 l21 21 -21 -5 c-18 -5
-22 -2 -22 18 0 13 -4 24 -10 24 -5 0 -7 -7 -4 -15 4 -8 1 -15 -6 -15 -6 0 -9
4 -6 8 2 4 1 14 -5 22 -7 12 -9 12 -9 -3z m-23 -139 c-3 -8 -6 -5 -6 6 -1 11
2 17 5 13 3 -3 4 -12 1 -19z"/>
<path d="M1343 2950 c-28 -12 -29 -16 -2 -31 16 -8 20 -8 14 0 -4 7 -1 18 5
26 14 17 13 17 -17 5z"/>
<path d="M1386 2942 c-3 -6 -1 -12 5 -14 13 -4 -21 -68 -36 -68 -9 0 -35 -45
-35 -61 0 -4 9 -7 20 -6 11 1 20 5 20 9 0 4 5 8 11 8 6 0 9 -7 5 -15 -3 -8 -1
-15 4 -15 6 0 10 -8 11 -17 1 -10 6 2 11 26 8 37 7 47 -6 57 -17 12 -22 34 -7
34 5 0 12 -6 14 -12 4 -8 8 -5 12 8 5 15 13 21 28 18 12 -2 15 -1 7 2 -8 3
-25 17 -36 31 -13 15 -24 21 -28 15z"/>
<path d="M1995 2930 c-3 -5 -1 -10 4 -10 6 0 11 5 11 10 0 6 -2 10 -4 10 -3 0
-8 -4 -11 -10z"/>
<path d="M1566 2871 c-3 -5 1 -11 9 -14 9 -4 12 -1 8 9 -6 16 -10 17 -17 5z"/>
<path d="M1557 2830 c3 -11 7 -20 9 -20 2 0 4 9 4 20 0 11 -4 20 -9 20 -5 0
-7 -9 -4 -20z"/>
<path d="M1730 2835 c0 -8 2 -15 4 -15 2 0 6 7 10 15 3 8 1 15 -4 15 -6 0 -10
-7 -10 -15z"/>
<path d="M1680 2803 c-25 -25 -25 -25 -2 -18 15 4 22 2 22 -7 0 -9 3 -9 8 -2
4 6 15 10 25 8 9 -1 14 2 11 8 -3 5 -15 7 -26 5 -15 -4 -18 -1 -13 14 8 24 6
23 -25 -8z"/>
<path d="M1670 2761 c0 -5 5 -13 10 -16 6 -3 10 -2 10 4 0 5 -4 13 -10 16 -5
3 -10 2 -10 -4z"/>
<path d="M1363 2745 c-3 -9 -3 -18 -1 -21 3 -3 8 4 11 16 6 23 -1 27 -10 5z"/>
<path d="M1785 2740 c-3 -5 -1 -10 4 -10 6 0 11 5 11 10 0 6 -2 10 -4 10 -3 0
-8 -4 -11 -10z"/>
<path d="M1411 2718 c0 -15 -5 -29 -10 -32 -5 -4 -7 4 -4 16 4 19 3 20 -6 8
-13 -18 -15 -97 -2 -104 5 -3 15 9 21 27 12 32 12 32 19 7 6 -20 9 -15 15 29
7 56 0 83 -12 41 -6 -25 -6 -25 -13 5 -7 30 -7 30 -8 3z"/>
<path d="M1540 2726 c0 -16 30 -90 34 -85 7 7 -18 99 -26 99 -5 0 -8 -6 -8
-14z"/>
<path d="M1460 2701 c0 -5 -3 -16 -6 -25 -3 -9 -1 -16 4 -16 6 0 12 8 15 18 3
14 6 13 14 -7 11 -29 25 -15 16 17 -5 21 -43 32 -43 13z"/>
<path d="M1923 2694 c-9 -4 -9 -13 -2 -31 7 -18 6 -30 -3 -40 -10 -12 -13 -11
-23 8 -12 22 -12 21 -19 -7 -6 -22 -9 -25 -17 -13 -5 7 -9 10 -9 4 0 -5 -5 -3
-10 5 -6 10 -10 11 -10 3 0 -7 -6 -13 -14 -13 -8 0 -16 -6 -19 -13 -2 -7 -19
-14 -36 -15 -28 -2 -31 1 -32 25 0 27 -1 27 -9 6 -5 -13 -15 -23 -22 -23 -9 0
-9 3 2 10 9 6 10 10 3 10 -6 0 -15 -5 -18 -10 -4 -6 -16 -8 -27 -5 -14 5 -21
1 -25 -15 -3 -13 -11 -19 -19 -16 -8 3 -14 -1 -14 -9 0 -32 -32 -9 -44 30 -3
11 -3 0 0 -24 4 -40 3 -43 -16 -38 -11 3 -20 1 -20 -5 0 -5 -5 -6 -12 -2 -20
13 -60 11 -65 -3 -3 -7 -9 -10 -14 -7 -5 3 -9 -3 -10 -13 -1 -13 -3 -11 -9 7
-7 21 -8 22 -9 5 -1 -15 -3 -17 -10 -6 -5 7 -13 11 -19 7 -6 -3 -12 -1 -14 4
-4 12 -115 15 -148 5 -15 -5 -20 -13 -17 -25 5 -21 -18 -116 -32 -134 -5 -6
-13 -35 -17 -64 -3 -28 -10 -52 -15 -52 -5 0 -6 -14 -2 -30 6 -35 -30 -98 -72
-126 -14 -9 -25 -21 -25 -28 0 -7 3 -7 8 1 6 9 13 7 26 -9 16 -18 16 -20 2
-15 -9 4 -16 2 -16 -4 0 -6 -5 -7 -12 -3 -6 4 -8 3 -5 -3 10 -15 56 -22 60 -9
2 6 8 7 13 3 5 -5 1 -13 -8 -18 -10 -5 -15 -16 -12 -24 4 -8 1 -15 -5 -15 -6
0 -8 -11 -4 -30 3 -17 1 -30 -4 -30 -16 0 -38 -53 -38 -92 0 -21 -4 -36 -10
-35 -5 1 -9 5 -8 9 1 3 -4 9 -12 12 -8 3 -15 0 -16 -7 0 -7 -3 -30 -5 -52 -3
-22 -5 -50 -5 -62 0 -13 -3 -22 -7 -22 -19 3 -32 -2 -32 -12 0 -8 4 -8 14 0 9
7 17 8 20 3 3 -6 -1 -12 -9 -16 -8 -3 -15 -11 -15 -17 0 -8 6 -7 18 2 15 13
16 12 4 -3 -15 -19 -39 -18 -54 3 -8 11 -9 11 -5 -2 3 -9 0 -22 -6 -28 -9 -9
-8 -11 7 -5 14 5 17 3 14 -7 -3 -8 -11 -14 -18 -14 -7 0 -25 -22 -39 -50 -14
-27 -29 -51 -34 -53 -4 -2 -5 -8 -1 -13 3 -5 1 -9 -3 -9 -5 0 -9 -10 -10 -22
-1 -11 -6 -24 -11 -27 -4 -3 -15 -31 -24 -61 -9 -30 -26 -91 -39 -135 -25 -82
-28 -133 -15 -222 6 -45 5 -53 -12 -62 -21 -11 -49 -68 -38 -78 3 -4 16 3 29
14 12 11 29 23 37 27 8 4 6 0 -4 -8 -17 -13 -18 -18 -6 -29 7 -6 10 -7 7 -1
-3 6 0 11 8 11 19 0 19 -11 1 -26 -13 -11 -11 -61 3 -61 3 0 15 7 25 15 11 8
25 15 30 15 8 0 8 -3 0 -8 -10 -7 -44 -74 -44 -87 0 -3 4 -4 8 -1 5 3 8 -8 7
-25 -2 -29 -1 -29 19 -12 11 10 29 27 39 38 18 20 18 20 12 -8 -4 -19 -2 -26
7 -25 7 2 13 -4 13 -12 0 -12 -23 -17 -115 -23 -63 -4 -152 -16 -198 -26 -60
-14 -84 -16 -90 -7 -4 6 -7 150 -8 321 0 171 -1 376 -2 458 l-2 147 -230 0
-230 0 0 -26 0 -27 153 5 c83 3 158 3 165 1 9 -4 12 -55 12 -214 l0 -209 -165
0 -165 0 0 -334 0 -334 120 5 c66 3 120 2 120 -2 0 -5 -15 -31 -34 -59 -18
-28 -48 -75 -66 -104 l-33 -52 -54 0 -53 0 0 -61 c0 -50 3 -60 15 -56 8 4 17
2 20 -3 4 -6 -3 -10 -14 -10 -12 0 -21 -7 -21 -15 0 -13 124 -15 1055 -15 697
0 1055 3 1055 10 0 6 7 10 15 10 8 0 15 7 15 16 0 8 -5 12 -10 9 -6 -4 -19 13
-30 37 -15 34 -20 38 -20 19 0 -20 -2 -21 -15 -11 -8 7 -15 18 -15 25 0 8 -4
15 -8 17 -28 11 -90 127 -75 141 2 3 23 -15 45 -39 22 -24 45 -44 51 -44 5 0
-1 10 -15 23 -13 12 -33 37 -43 55 -11 18 -23 32 -28 32 -5 0 -4 7 3 15 11 13
10 14 -3 10 -8 -4 -18 -2 -22 4 -3 6 1 11 9 11 8 0 18 5 22 12 4 7 3 8 -4 4
-8 -4 -10 -2 -6 7 3 8 13 13 23 10 20 -5 81 22 81 36 0 5 15 13 33 16 17 4 37
11 43 16 5 4 37 10 70 12 33 3 69 9 80 15 10 5 45 15 77 23 32 7 60 16 63 21
3 4 14 8 24 8 20 0 83 30 88 43 8 17 43 4 106 -38 43 -28 56 -71 56 -179 0
-86 -3 -99 -32 -152 -17 -33 -39 -73 -48 -91 -12 -22 -20 -29 -27 -22 -7 7
-15 4 -25 -10 -8 -12 -18 -18 -21 -14 -4 3 -7 -2 -7 -11 0 -14 -6 -17 -25 -14
-39 8 -29 -8 14 -20 22 -7 104 -12 190 -12 l152 0 -3 26 c-2 20 4 32 25 47
l27 21 28 -21 c15 -11 28 -32 30 -46 l3 -27 800 0 799 0 0 25 c0 23 -18 32
-53 26 -5 -1 -7 6 -5 16 2 12 12 18 32 18 25 -1 26 0 10 12 -10 7 -21 13 -24
13 -4 0 -12 10 -18 23 -11 20 -12 18 -7 -13 4 -27 3 -30 -4 -15 -5 11 -10 32
-10 48 -1 25 2 27 39 27 36 0 40 3 40 25 0 24 -3 25 -55 25 -44 0 -57 4 -62
18 -19 51 -165 215 -201 226 -77 23 -205 47 -297 56 -94 10 -121 16 -184 48
-72 36 -75 39 -88 87 -8 28 -18 54 -23 58 -4 5 -5 36 -3 70 4 46 1 72 -12 102
-10 22 -19 58 -20 80 -1 22 -6 52 -10 67 -5 19 -4 28 5 28 44 0 64 78 55 214
-4 61 -6 160 -5 219 1 73 -3 114 -11 123 -7 8 -15 32 -19 52 l-6 37 -19 -29
c-11 -17 -19 -45 -19 -66 1 -30 -3 -38 -25 -48 -37 -16 -51 -45 -51 -100 1
-72 2 -82 14 -82 6 0 4 -5 -4 -10 -13 -8 -13 -15 1 -55 9 -25 13 -45 8 -45 -5
0 -9 6 -10 13 -1 6 -4 1 -8 -13 -4 -14 -4 -36 1 -49 5 -15 5 -28 -2 -35 -7 -7
-10 -6 -10 2 0 7 -5 12 -12 12 -6 0 0 -12 13 -27 24 -26 69 -98 69 -110 0 -3
-6 -3 -13 0 -7 3 -19 -4 -26 -15 -9 -15 -15 -17 -25 -9 -10 8 -17 7 -26 -4 -7
-9 -19 -14 -27 -11 -7 3 -13 1 -13 -4 0 -6 -4 -10 -10 -10 -6 0 -8 19 -5 45 2
27 0 43 -6 40 -5 -4 -9 7 -9 24 0 24 -3 29 -17 24 -11 -4 -12 -8 -5 -11 19 -6
14 -29 -9 -35 -19 -5 -20 -3 -13 21 4 15 8 40 7 55 0 19 4 26 12 23 7 -2 15 4
18 15 4 15 0 19 -19 19 -13 0 -24 -4 -24 -10 0 -5 -13 -10 -30 -10 -37 0 -38
12 -2 46 23 22 24 26 7 21 -11 -2 -29 -8 -39 -13 -19 -7 -19 -7 0 18 10 14 23
23 28 20 5 -3 6 0 2 6 -5 8 -13 8 -32 0 -20 -9 -27 -9 -34 1 -4 8 -13 10 -19
7 -15 -9 -14 7 1 22 9 9 8 12 -5 12 -19 0 -22 21 -6 37 9 9 8 16 -5 28 -18 19
-21 41 -6 50 6 4 8 10 5 15 -3 5 3 13 12 19 10 6 12 11 6 11 -20 0 -15 34 7
58 25 27 25 36 0 29 -11 -3 -23 -1 -26 4 -3 5 0 9 5 9 6 0 11 5 11 11 0 5 -4
7 -10 4 -17 -11 -11 7 8 21 16 13 16 14 -2 8 -16 -6 -17 -4 -11 17 5 13 12 40
16 59 7 31 6 33 -6 17 -7 -10 -18 -57 -25 -105 -14 -107 -38 -179 -91 -279
-60 -112 -127 -208 -203 -288 -36 -38 -68 -78 -72 -87 -3 -10 -11 -18 -17 -18
-6 0 -20 -9 -32 -20 -37 -37 -80 -70 -92 -70 -6 0 -14 -6 -16 -12 -4 -9 -6
-10 -6 -1 -1 7 -28 -2 -69 -22 -87 -44 -192 -69 -252 -60 -24 4 -69 16 -100
28 -30 12 -59 21 -65 22 -46 4 -119 63 -200 160 -76 91 -202 211 -237 226 -41
17 -66 42 -74 74 -4 15 -15 32 -25 38 -11 7 -19 18 -19 25 0 7 -4 10 -10 7 -5
-3 -10 -1 -10 5 0 6 -9 20 -20 32 -11 12 -20 32 -20 45 0 13 -4 23 -9 23 -13
0 -29 73 -20 95 7 19 8 19 8 -2 1 -14 6 -21 14 -17 7 2 26 -13 42 -36 17 -22
36 -40 43 -40 6 0 12 -4 12 -10 0 -5 5 -10 11 -10 6 0 17 -7 25 -15 13 -13 19
-13 50 0 19 8 48 24 65 35 25 19 30 19 35 6 3 -9 11 -16 16 -16 13 0 68 -56
68 -69 0 -6 7 -11 15 -11 9 0 20 -11 25 -25 5 -14 15 -25 21 -25 6 0 8 -7 5
-15 -3 -10 3 -19 17 -26 28 -13 63 -59 45 -59 -8 0 -9 -3 -3 -8 6 -4 17 -20
25 -36 8 -16 19 -37 24 -46 18 -32 124 -73 188 -73 32 0 58 -4 58 -8 0 -14 37
-10 49 5 7 8 27 18 44 22 48 10 91 51 95 89 3 30 1 33 -35 38 -21 4 -60 7 -88
7 -67 0 -156 22 -197 48 l-33 22 30 2 c17 1 53 2 80 3 28 1 70 3 94 3 42 2 43
3 28 20 -26 29 -21 59 11 68 32 9 65 6 73 -8 3 -5 11 -2 19 7 19 23 49 18 62
-10 9 -19 14 -22 25 -14 7 6 13 9 13 6 0 -3 25 6 56 20 40 18 66 24 90 20 35
-6 34 -7 125 73 10 8 25 21 33 28 9 7 18 23 22 37 8 31 -18 57 -73 75 -24 7
-43 17 -43 22 0 4 -8 8 -17 8 -15 0 -18 -10 -20 -64 -1 -50 -6 -71 -24 -96
-23 -31 -25 -31 -101 -29 -49 2 -82 -1 -89 -8 -8 -8 -30 -10 -61 -6 -37 4 -52
2 -59 -8 -7 -10 -11 -11 -17 -2 -4 6 -21 11 -37 11 -17 -1 -50 9 -74 21 -40
21 -55 23 -185 19 -128 -3 -143 -1 -168 17 -15 11 -28 26 -29 33 -6 45 -31
103 -42 98 -61 -25 -90 -29 -155 -18 -38 7 -82 19 -98 27 -16 8 -37 15 -47 15
-10 0 -20 7 -23 15 -4 9 -19 15 -35 15 -16 0 -29 5 -29 10 0 6 -7 10 -15 10
-8 0 -14 3 -14 8 3 15 -14 72 -21 72 -4 0 -10 18 -14 40 -3 23 -10 39 -15 36
-4 -3 -14 19 -21 49 -11 47 -11 71 2 157 21 141 25 155 57 217 23 45 33 54 59
57 17 2 34 -1 38 -7 4 -8 9 -7 15 2 12 19 29 -6 29 -43 0 -21 6 -29 23 -32 50
-10 267 -15 293 -7 16 6 69 13 117 16 79 6 87 9 82 25 -5 15 -1 19 17 17 13 0
25 -5 28 -9 4 -4 15 -1 26 6 15 11 21 27 23 68 1 29 10 70 20 91 10 20 15 37
10 37 -18 0 -8 39 14 55 19 13 20 17 7 25 -8 5 -23 10 -33 10 -11 0 -27 10
-38 23 -11 14 -18 17 -19 8 0 -11 -3 -11 -15 -1 -9 7 -14 19 -11 26 3 7 0 16
-6 20 -6 4 -8 3 -4 -4 3 -6 2 -13 -3 -17 -6 -3 -8 -13 -5 -23 5 -14 3 -14 -10
2 -16 19 -16 19 -16 1 0 -14 -3 -16 -11 -8 -6 6 -17 9 -24 7 -6 -3 -17 5 -23
18 -11 21 -12 21 -11 3 2 -34 -1 -41 -11 -25 -8 13 -10 13 -10 -2 0 -10 -7
-15 -17 -13 -10 2 -18 4 -18 5 0 9 -35 5 -35 -3 0 -7 -6 -5 -13 4 -7 9 -18 14
-25 12 -7 -3 -10 1 -6 10 3 10 -2 18 -15 22 -12 3 -19 11 -16 16 7 10 6 10
-12 3z m19 -76 c-7 -7 -12 -8 -12 -2 0 14 12 26 19 19 2 -3 -1 -11 -7 -17z
m88 -109 c0 -5 5 -9 11 -9 6 0 17 -7 25 -15 13 -13 11 -14 -18 -10 -18 3 -27
3 -20 -1 7 -3 17 -15 23 -25 10 -19 9 -20 -18 -6 -16 8 -62 15 -110 16 -75 2
-87 -1 -153 -33 -40 -20 -67 -29 -59 -20 10 13 10 17 0 23 -9 6 -4 11 16 16
15 5 31 8 35 7 4 -1 24 7 43 18 20 11 43 20 53 21 13 0 11 3 -5 9 -13 5 -23
11 -23 12 0 2 26 4 58 6 40 1 53 -1 42 -8 -12 -8 -11 -10 8 -10 12 0 22 4 22
9 0 5 8 11 18 13 23 5 52 -2 52 -13z m-695 -19 c3 -5 -1 -10 -9 -10 -9 0 -16
5 -16 10 0 6 4 10 9 10 6 0 13 -4 16 -10z m558 -159 c10 -39 3 -50 -21 -35
-19 12 -27 38 -18 60 9 24 29 11 39 -25z m-820 -566 c-3 -9 -8 -14 -10 -11 -3
3 -2 9 2 15 9 16 15 13 8 -4z m-87 -198 c1 -7 -11 -31 -27 -52 -33 -44 -40
-39 -8 6 11 16 21 38 22 48 1 21 10 19 13 -2z m591 -49 c-3 -8 -6 -5 -6 6 -1
11 2 17 5 13 3 -3 4 -12 1 -19z m-577 -28 c0 -5 -9 -15 -19 -22 -11 -7 -17
-18 -14 -27 5 -13 4 -14 -8 -3 -12 11 -11 16 6 28 11 9 19 20 18 25 -2 5 2 9
7 9 6 0 10 -4 10 -10z m-97 -43 c-11 -12 -18 -29 -16 -37 4 -13 3 -13 -6 0 -9
12 -11 13 -11 1 0 -8 -3 -12 -6 -8 -3 3 6 22 21 42 15 19 30 33 33 30 3 -3 -4
-15 -15 -28z m142 -18 c-1 -21 -115 -133 -115 -114 0 7 32 58 41 65 3 3 14 20
24 38 22 37 53 44 50 11z m-110 -28 c-3 -12 -11 -19 -16 -16 -5 4 -3 14 3 25
15 24 22 19 13 -9z m1358 -16 c31 -13 20 -35 -18 -35 -31 0 -35 3 -35 25 0 26
12 28 53 10z m94 4 c30 -11 43 -26 43 -50 0 -12 -10 -15 -41 -15 -48 1 -75 27
-58 57 11 22 18 23 56 8z m-1486 -36 c-5 -10 -17 -27 -26 -38 -16 -19 -17 -19
-3 5 26 46 29 50 34 50 3 0 0 -8 -5 -17z m99 -93 c0 -5 -5 -10 -11 -10 -5 0
-7 5 -4 10 3 6 8 10 11 10 2 0 4 -4 4 -10z m63 -12 c-5 -23 -5 -23 11 -3 17
20 17 20 7 -1 -6 -12 -8 -24 -4 -27 3 -3 -1 -12 -9 -20 -12 -13 -14 -9 -12 27
1 44 2 46 8 46 2 0 2 -10 -1 -22z m-54 -40 c-12 -23 0 -23 17 0 11 14 12 12 2
-18 -5 -19 -11 -46 -13 -59 -1 -14 -7 -27 -13 -29 -6 -2 -8 5 -5 17 3 10 0 28
-7 38 -10 16 -11 16 -6 1 3 -10 1 -18 -5 -18 -6 0 -8 -7 -5 -16 3 -8 2 -13 -3
-10 -5 3 -14 -1 -21 -9 -7 -8 -9 -15 -6 -15 4 0 2 -9 -4 -20 -6 -11 -15 -18
-21 -15 -5 4 -9 2 -9 -4 0 -12 -28 -41 -41 -41 -5 0 -7 12 -3 28 3 15 7 38 7
52 1 14 8 25 16 25 8 0 15 10 16 21 2 26 41 78 49 65 3 -5 -1 -14 -10 -22 -22
-18 -37 -49 -24 -49 6 0 15 12 21 26 5 15 12 24 15 21 8 -7 -11 -41 -42 -74
-26 -28 -19 -42 13 -24 10 6 12 11 6 11 -7 0 -13 5 -13 11 0 5 4 8 8 5 14 -8
52 80 40 92 -15 15 -3 28 26 28 21 0 23 -3 15 -18z m120 -11 c0 -9 -2 -8 -6 1
-2 6 -10 9 -15 6 -7 -4 -8 -2 -4 5 9 13 26 5 25 -12z m-88 -60 c-10 -9 -11 -8
-5 6 3 10 9 15 12 12 3 -3 0 -11 -7 -18z m-185 -139 c4 -7 3 -8 -4 -4 -7 4
-12 2 -12 -3 0 -6 -4 -11 -10 -11 -5 0 -7 7 -4 15 7 18 20 19 30 3z m1238
-944 c3 -8 2 -12 -4 -9 -6 3 -10 10 -10 16 0 14 7 11 14 -7z"/>
<path d="M1738 2433 c6 -2 18 -2 25 0 6 3 1 5 -13 5 -14 0 -19 -2 -12 -5z"/>
<path d="M976 1208 c3 -5 10 -6 15 -3 13 9 11 12 -6 12 -8 0 -12 -4 -9 -9z"/>
<path d="M1343 2675 c-3 -9 -3 -18 -1 -21 3 -3 8 4 11 16 6 23 -1 27 -10 5z"/>
<path d="M1301 2664 c0 -11 3 -14 6 -6 3 7 2 16 -1 19 -3 4 -6 -2 -5 -13z"/>
<path d="M1321 2664 c0 -11 3 -14 6 -6 3 7 2 16 -1 19 -3 4 -6 -2 -5 -13z"/>
<path d="M1332 2620 c0 -14 2 -19 5 -12 2 6 2 18 0 25 -3 6 -5 1 -5 -13z"/>
<path d="M2605 2610 c-5 -8 -22 -10 -46 -7 -22 3 -42 1 -45 -5 -3 -5 -14 -8
-24 -5 -14 3 -16 0 -12 -17 3 -11 11 -25 19 -29 7 -4 13 -15 13 -22 0 -8 15
-32 34 -52 18 -21 37 -53 41 -72 4 -18 14 -42 23 -52 15 -17 18 -17 39 -4 26
18 31 4 7 -19 -14 -15 -12 -16 24 -16 21 0 79 -3 128 -6 102 -8 124 3 124 57
0 34 9 36 40 9 17 -14 20 -23 12 -32 -8 -10 3 -14 55 -15 54 -1 64 1 59 13 -3
9 -6 22 -6 29 0 7 -8 16 -17 18 -13 3 -11 5 6 6 34 2 12 24 -56 56 -59 28
-130 34 -191 16 -28 -8 -32 -8 -22 3 8 11 8 15 -2 20 -7 3 1 3 17 0 19 -4 26
-2 17 3 -9 7 4 14 42 25 31 8 58 12 62 9 6 -6 12 -8 45 -10 11 0 17 -5 14 -11
-3 -5 0 -10 8 -10 8 0 17 -7 21 -15 3 -8 12 -15 20 -15 7 0 16 -7 20 -15 3 -8
12 -15 21 -15 8 0 15 -5 15 -11 0 -5 4 -8 9 -5 5 3 14 -1 21 -9 7 -8 19 -15
28 -15 8 0 24 -8 35 -17 15 -13 18 -14 13 -3 -4 8 2 4 13 -10 39 -46 52 -84
62 -180 22 -198 18 -181 40 -167 19 12 26 28 12 26 -18 -3 -20 3 -13 36 4 19
5 35 1 35 -4 0 -7 9 -8 21 -1 15 1 18 11 10 9 -8 18 -3 35 19 12 17 17 30 11
30 -5 0 -10 -4 -10 -10 0 -5 -10 -10 -21 -10 -16 0 -20 5 -16 19 3 15 1 18
-11 14 -11 -5 -14 -2 -9 10 4 10 2 17 -4 17 -7 0 -9 11 -7 25 3 13 1 26 -4 27
-5 2 0 15 11 30 22 28 27 53 12 62 -5 4 -12 0 -14 -6 -3 -7 -6 -4 -6 7 -1 17
-3 18 -12 5 -8 -12 -12 -12 -16 -2 -7 19 -66 72 -79 72 -6 0 -24 10 -40 22
-15 12 -34 23 -42 24 -8 2 -15 4 -16 6 -2 2 -10 14 -19 28 -15 22 -17 22 -17
5 0 -17 -2 -17 -10 -5 -5 8 -10 11 -10 5 0 -5 -7 -1 -15 9 -8 11 -15 14 -15 8
0 -7 -9 -12 -20 -12 -11 0 -20 5 -20 11 0 8 -4 8 -14 0 -11 -9 -15 -9 -20 1
-5 10 -7 10 -12 1 -4 -8 -11 -9 -22 -3 -29 15 -76 27 -99 25 -13 -1 -23 4 -23
10 0 7 -12 11 -27 11 -16 -1 -33 2 -40 7 -21 15 -100 20 -108 7z m401 -176
c21 -17 23 -17 -61 6 l-30 8 36 1 c19 1 44 -6 55 -15z"/>
<path d="M2361 2589 c11 -21 73 -27 85 -8 5 8 -1 10 -20 7 -14 -3 -26 -2 -26
2 0 4 -11 10 -25 12 -21 4 -23 3 -14 -13z"/>
<path d="M3487 2533 c-3 -5 1 -14 9 -21 12 -10 14 -10 14 2 0 17 -16 30 -23
19z"/>
<path d="M1120 2499 c0 -5 5 -7 10 -4 6 3 10 8 10 11 0 2 -4 4 -10 4 -5 0 -10
-5 -10 -11z"/>
<path d="M3502 2441 c-3 -35 13 -81 28 -81 13 0 13 66 0 91 -15 27 -25 24 -28
-10z"/>
<path d="M3385 2140 c-3 -5 -1 -10 4 -10 6 0 11 5 11 10 0 6 -2 10 -4 10 -3 0
-8 -4 -11 -10z"/>
<path d="M3370 2110 c0 -5 5 -10 10 -10 6 0 10 5 10 10 0 6 -4 10 -10 10 -5 0
-10 -4 -10 -10z"/>
<path d="M4563 1993 c9 -2 23 -2 30 0 6 3 -1 5 -18 5 -16 0 -22 -2 -12 -5z"/>
<path d="M4008 1983 c7 -3 16 -2 19 1 4 3 -2 6 -13 5 -11 0 -14 -3 -6 -6z"/>
<path d="M4098 1983 c12 -2 32 -2 45 0 12 2 2 4 -23 4 -25 0 -35 -2 -22 -4z"/>
<path d="M911 1955 c-14 -14 -22 -28 -18 -32 4 -4 15 3 23 16 10 13 22 20 31
17 9 -4 13 -1 11 6 -7 20 -22 18 -47 -7z"/>
<path d="M940 1920 c0 -13 18 -22 24 -11 3 5 -1 11 -9 15 -8 3 -15 1 -15 -4z"/>
<path d="M3300 1906 c0 -36 15 -40 18 -5 1 16 -2 29 -8 29 -5 0 -10 -11 -10
-24z"/>
<path d="M3331 1903 c0 -25 1 -26 9 -8 12 27 12 35 0 35 -5 0 -10 -12 -9 -27z"/>
<path d="M1036 1894 c-4 -9 -4 -19 -1 -22 2 -3 7 3 11 12 4 9 4 19 1 22 -2 3
-7 -3 -11 -12z"/>
<path d="M4537 1816 c-10 -14 -17 -49 -18 -83 -3 -103 2 -187 10 -193 5 -3 12
-16 16 -30 4 -14 16 -35 27 -47 12 -12 18 -29 15 -37 -4 -9 -2 -16 3 -16 6 0
9 87 8 215 l-1 215 -22 0 c-13 0 -30 -10 -38 -24z m33 -43 c0 -16 -5 -35 -10
-43 -8 -12 -10 -9 -10 12 0 14 -3 33 -6 42 -4 11 -1 16 10 16 11 0 16 -9 16
-27z"/>
<path d="M2277 1812 c-10 -10 -14 -22 -10 -27 5 -4 0 -5 -9 -2 -13 4 -18 1
-19 -11 0 -10 -3 -12 -6 -4 -8 20 -25 13 -18 -8 9 -28 -5 -25 -33 8 l-23 27 6
-30 c4 -16 14 -43 24 -60 18 -32 25 -34 193 -50 58 -6 70 -4 95 14 15 12 46
23 68 25 59 6 76 15 65 34 -5 10 -11 25 -14 35 -7 23 -35 33 -55 19 -50 -36
-71 -43 -94 -31 -12 7 -25 16 -28 21 -3 5 -15 10 -27 13 -12 2 -31 13 -44 24
-27 26 -50 27 -71 3z"/>
<path d="M3280 1789 c0 -5 5 -7 10 -4 6 3 10 8 10 11 0 2 -4 4 -10 4 -5 0 -10
-5 -10 -11z"/>
<path d="M89 1396 c-9 -19 -8 -29 4 -46 14 -20 13 -24 -15 -51 -22 -20 -28
-33 -23 -46 6 -15 10 -12 18 15 5 17 14 32 18 32 11 0 12 2 -7 -54 -12 -34
-19 -44 -25 -35 -5 8 -9 10 -9 5 0 -5 7 -18 16 -27 14 -16 15 -23 4 -48 -18
-43 -7 -63 14 -23 21 40 51 42 64 5 l10 -28 11 28 c8 21 17 27 41 27 16 0 30
5 30 11 0 5 -4 7 -10 4 -6 -3 -10 -1 -10 4 0 6 5 11 10 11 6 0 10 9 10 20 0
11 -4 20 -10 20 -5 0 -10 -7 -10 -16 0 -21 -24 -12 -28 11 -5 23 18 37 37 22
12 -10 13 -9 2 11 -9 17 -9 22 1 22 8 1 7 5 -5 14 -9 7 -29 11 -45 8 -15 -2
-24 -2 -20 2 3 4 -10 23 -30 41 -30 28 -35 36 -24 47 10 10 14 10 21 0 4 -7
15 -10 24 -6 10 3 24 1 32 -6 12 -10 15 -10 15 3 0 19 -43 52 -48 37 -2 -5
-10 -10 -18 -10 -9 0 -12 5 -9 10 3 6 -1 10 -10 10 -8 0 -20 -11 -26 -24z m38
-158 c-4 -37 -37 -55 -34 -19 0 11 4 18 8 15 4 -2 9 5 12 16 8 32 18 23 14
-12z m49 -3 c9 -22 -3 -46 -19 -39 -11 4 -15 31 -8 52 3 8 23 -1 27 -13z"/>
<path d="M0 1342 c0 -10 22 -32 32 -32 5 0 3 9 -4 20 -13 20 -28 27 -28 12z"/>
<path d="M3467 1139 c4 -13 8 -18 11 -10 2 7 -1 18 -6 23 -8 8 -9 4 -5 -13z"/>
<path d="M150 1086 c0 -2 7 -7 16 -10 8 -3 12 -2 9 4 -6 10 -25 14 -25 6z"/>
<path d="M4508 1003 c-30 -3 -39 -9 -44 -29 -4 -14 -4 -28 0 -31 3 -4 6 5 7
18 l1 24 7 -24 c4 -14 13 -26 21 -29 12 -3 12 -2 1 6 -9 7 -10 11 -2 17 7 4
18 1 26 -5 8 -7 15 -11 16 -9 4 17 9 69 7 67 -2 -1 -20 -3 -40 -5z"/>
<path d="M4017 907 c15 -6 22 -22 27 -54 7 -49 -3 -79 -15 -47 -7 17 -8 17 -8
1 -1 -10 19 -37 44 -59 45 -41 59 -78 29 -78 -8 0 -12 -4 -9 -10 3 -5 36 -9
72 -9 47 1 62 4 50 11 -9 5 -17 18 -17 29 0 11 -10 24 -22 29 -21 8 -20 9 9 9
26 1 30 4 26 21 -3 12 0 20 6 20 7 0 9 -5 5 -11 -4 -7 -1 -10 7 -7 9 3 13 15
11 31 -3 21 2 29 20 36 l23 10 -23 0 c-21 1 -23 4 -17 31 6 28 4 30 -22 31
-23 1 -21 3 16 13 39 10 29 11 -94 12 -90 0 -131 -3 -118 -9z"/>
<path d="M4430 913 c-26 -10 -28 -24 -10 -71 17 -46 19 -47 64 -50 25 -2 46
-8 46 -14 0 -6 -11 -8 -25 -6 -23 5 -25 2 -25 -28 0 -34 23 -48 33 -21 4 10 6
10 6 0 1 -7 10 -13 22 -13 15 0 19 5 14 19 -4 13 2 23 20 35 21 14 25 24 25
67 0 50 -1 51 -26 45 -14 -4 -32 -2 -40 4 -7 7 -17 9 -23 6 -5 -4 -17 1 -25
10 -9 8 -16 11 -16 5 0 -6 -10 -11 -21 -11 -18 0 -19 2 -9 15 13 16 13 16 -10
8z m70 -103 c0 -5 -4 -10 -9 -10 -6 0 -13 5 -16 10 -3 6 1 10 9 10 9 0 16 -4
16 -10z"/>
<path d="M2268 76 c-23 -17 -23 -21 1 -23 14 -1 19 4 18 18 -1 10 -1 19 -2 19
0 0 -8 -7 -17 -14z"/>
<path d="M2922 58 c-5 -7 -13 -23 -16 -35 -7 -21 -4 -23 33 -23 33 0 41 4 41
18 0 17 -28 52 -42 52 -3 0 -10 -6 -16 -12z"/>
<path d="M2211 14 c0 -11 3 -14 6 -6 3 7 2 16 -1 19 -3 4 -6 -2 -5 -13z"/>
</g>
</svg>
